<svg width="91" height="84" viewBox="0 0 91 84" fill="none" xmlns="http://www.w3.org/2000/svg">
<path d="M60.063 13.0944C56.8949 15.6414 58.69 3.77969 73.2402 3.51913C87.7905 3.25857 90.2211 19.7388 90.2647 26.8128C90.323 38.4047 87.2616 65.8093 62.5326 65.1141C55.939 64.9267 47.8222 62.0778 46.3376 45.4923C46.3376 45.4584 46.3376 45.4571 46.3376 45.3963C46.3376 44.4819 46.4345 29.6067 43.179 32.053C39.8121 34.5772 37.687 49.6079 36.1732 55.5295C34.941 60.331 29.4441 75.2611 15.3742 58.0539C15.3742 58.0539 13.5886 57.0157 18.1202 62.9055C22.6517 68.7952 38.0121 78.9102 56.5599 75.7779C75.108 72.6453 84.5687 59.4759 84.5687 59.4759C84.5687 59.4759 86.4027 56.9107 88.3144 53.5632C88.4356 53.3576 88.6333 53.202 88.8694 53.1264C89.1059 53.0508 89.3632 53.0606 89.5921 53.1542C89.821 53.2477 90.0047 53.4184 90.1075 53.6327C90.2103 53.8469 90.2247 54.0896 90.1484 54.3131C90.1193 54.3894 90.0866 54.4709 90.061 54.5601C86.1879 68.1364 70.2224 77.3326 70.2224 77.3326C70.2224 77.3326 49.6271 89.6241 27.1781 79.4681C4.72941 69.3121 1.64384 49.2513 1.64384 49.2513C1.64384 49.2513 -2.06289 31.4588 6.10241 19.2309C14.268 7.00336 17.0867 17.2968 17.4456 19.9536C18.3337 26.8128 17.8582 44.4087 21.3609 47.39C24.7039 50.2343 24.9174 44.9209 24.9272 44.4498C24.9272 44.4223 24.9272 44.4041 24.9272 44.3766C25.0533 43.2427 28.202 16.341 42.9075 1.84987C45.1875 -0.399786 48.8118 -3.18013 52.1256 10.7806C55.4394 24.7413 55.4636 30.0229 56.793 36.3881C57.4529 39.5433 61.7369 52.6899 69.2908 41.5645C74.5517 33.8165 74.4239 27.0869 74.1135 23.9411C74.1044 23.9053 74.0929 23.8701 74.0795 23.8358C74.0795 22.4518 69.4169 5.56781 60.063 13.0944Z" fill="url(#paint0_radial_111_36)"/>
<defs>
<radialGradient id="paint0_radial_111_36" cx="0" cy="0" r="1" gradientUnits="userSpaceOnUse" gradientTransform="translate(33.7212 8.51641) rotate(76.8933) scale(86.4526 78.1438)">
<stop stop-color="#FF3838"/>
<stop offset="0.479215" stop-color="#CA234B"/>
<stop offset="1" stop-color="#510D57"/>
</radialGradient>
</defs>
</svg>
